<svg width="201" height="200" viewBox="0 0 201 200" fill="none" xmlns="http://www.w3.org/2000/svg">
<path d="M138.61 100L195.497 43.142C202.478 36.1648 202.478 24.8523 195.497 17.8693L182.854 5.23295C175.874 -1.74432 164.555 -1.74432 157.569 5.23295L100.681 62.0909L43.7934 5.23295C36.8125 -1.74432 25.4941 -1.74432 18.5075 5.23295L5.86459 17.8693C-1.11632 24.8466 -1.11632 36.1591 5.86459 43.142L62.7522 100L5.86459 156.858C-1.11632 163.835 -1.11632 175.148 5.86459 182.131L18.5075 194.767C25.4884 201.744 36.8125 201.744 43.7934 194.767L100.681 137.909L157.569 194.767C164.549 201.744 175.874 201.744 182.854 194.767L195.497 182.131C202.478 175.153 202.478 163.841 195.497 156.858L138.61 100Z" fill="#FDFDFD"/>
</svg>
